<?xml version="1.0" encoding="UTF-8"?>
<!-- Do not edit this file with editors other than draw.io -->
<!DOCTYPE svg PUBLIC "-//W3C//DTD SVG 1.1//EN" "http://www.w3.org/Graphics/SVG/1.1/DTD/svg11.dtd">
<svg xmlns="http://www.w3.org/2000/svg" xmlns:xlink="http://www.w3.org/1999/xlink" version="1.1" width="496" height="496" viewBox="-0.5 -0.5 496 496" content="&lt;mxfile host=&quot;Electron&quot; modified=&quot;2024-02-08T01:19:50.670Z&quot; agent=&quot;Mozilla/5.0 (Windows NT 10.0; Win64; x64) AppleWebKit/537.36 (KHTML, like Gecko) draw.io/23.0.2 Chrome/120.0.6099.109 Electron/28.1.0 Safari/537.36&quot; etag=&quot;660c2cQwUj2fuafULEAH&quot; version=&quot;23.0.2&quot; type=&quot;device&quot;&gt;&#10;  &lt;diagram name=&quot;Page-1&quot; id=&quot;ja49I31db52JSxWJJxev&quot;&gt;&#10;    &lt;mxGraphModel dx=&quot;1834&quot; dy=&quot;1236&quot; grid=&quot;0&quot; gridSize=&quot;10&quot; guides=&quot;0&quot; tooltips=&quot;1&quot; connect=&quot;0&quot; arrows=&quot;0&quot; fold=&quot;1&quot; page=&quot;0&quot; pageScale=&quot;1&quot; pageWidth=&quot;1100&quot; pageHeight=&quot;850&quot; background=&quot;none&quot; math=&quot;0&quot; shadow=&quot;1&quot;&gt;&#10;      &lt;root&gt;&#10;        &lt;mxCell id=&quot;0&quot; /&gt;&#10;        &lt;mxCell id=&quot;1&quot; parent=&quot;0&quot; /&gt;&#10;        &lt;mxCell id=&quot;9_yundcjcufTjwk7wA7y-1&quot; value=&quot;&quot; style=&quot;group;movable=0;resizable=0;rotatable=0;deletable=0;editable=0;locked=1;connectable=0;&quot; vertex=&quot;1&quot; connectable=&quot;0&quot; parent=&quot;1&quot;&gt;&#10;          &lt;mxGeometry width=&quot;480&quot; height=&quot;480&quot; as=&quot;geometry&quot; /&gt;&#10;        &lt;/mxCell&gt;&#10;        &lt;mxCell id=&quot;zBknXudiURap7mkD7rTB-1&quot; value=&quot;&quot; style=&quot;ellipse;whiteSpace=wrap;html=1;aspect=fixed;shadow=0;rounded=0;labelBackgroundColor=none;sketch=1;curveFitting=1;jiggle=2;fillColor=#660033;strokeColor=#003366;fontColor=#E4FDE1;container=0;fillStyle=cross-hatch;movable=1;resizable=1;rotatable=1;deletable=1;editable=1;locked=0;connectable=1;strokeWidth=5;&quot; parent=&quot;9_yundcjcufTjwk7wA7y-1&quot; vertex=&quot;1&quot;&gt;&#10;          &lt;mxGeometry width=&quot;80&quot; height=&quot;80&quot; as=&quot;geometry&quot; /&gt;&#10;        &lt;/mxCell&gt;&#10;        &lt;mxCell id=&quot;zBknXudiURap7mkD7rTB-2&quot; value=&quot;&quot; style=&quot;ellipse;whiteSpace=wrap;html=1;aspect=fixed;shadow=0;rounded=0;labelBackgroundColor=none;sketch=1;curveFitting=1;jiggle=2;fillColor=#660033;strokeColor=#003366;fontColor=#E4FDE1;container=0;fillStyle=cross-hatch;movable=1;resizable=1;rotatable=1;deletable=1;editable=1;locked=0;connectable=1;strokeWidth=5;&quot; parent=&quot;9_yundcjcufTjwk7wA7y-1&quot; vertex=&quot;1&quot;&gt;&#10;          &lt;mxGeometry x=&quot;400&quot; width=&quot;80&quot; height=&quot;80&quot; as=&quot;geometry&quot; /&gt;&#10;        &lt;/mxCell&gt;&#10;        &lt;mxCell id=&quot;zBknXudiURap7mkD7rTB-3&quot; value=&quot;&quot; style=&quot;ellipse;whiteSpace=wrap;html=1;aspect=fixed;shadow=0;rounded=0;labelBackgroundColor=none;sketch=1;curveFitting=1;jiggle=2;fillColor=#660033;strokeColor=#003366;fontColor=#E4FDE1;container=0;fillStyle=cross-hatch;movable=1;resizable=1;rotatable=1;deletable=1;editable=1;locked=0;connectable=1;strokeWidth=5;&quot; parent=&quot;9_yundcjcufTjwk7wA7y-1&quot; vertex=&quot;1&quot;&gt;&#10;          &lt;mxGeometry y=&quot;400&quot; width=&quot;80&quot; height=&quot;80&quot; as=&quot;geometry&quot; /&gt;&#10;        &lt;/mxCell&gt;&#10;        &lt;mxCell id=&quot;zBknXudiURap7mkD7rTB-4&quot; value=&quot;&quot; style=&quot;ellipse;whiteSpace=wrap;html=1;aspect=fixed;shadow=0;rounded=0;labelBackgroundColor=none;sketch=1;curveFitting=1;jiggle=2;fillColor=#660033;strokeColor=#003366;fontColor=#E4FDE1;container=0;fillStyle=cross-hatch;movable=1;resizable=1;rotatable=1;deletable=1;editable=1;locked=0;connectable=1;strokeWidth=5;&quot; parent=&quot;9_yundcjcufTjwk7wA7y-1&quot; vertex=&quot;1&quot;&gt;&#10;          &lt;mxGeometry x=&quot;400&quot; y=&quot;400&quot; width=&quot;80&quot; height=&quot;80&quot; as=&quot;geometry&quot; /&gt;&#10;        &lt;/mxCell&gt;&#10;        &lt;mxCell id=&quot;zBknXudiURap7mkD7rTB-5&quot; value=&quot;&quot; style=&quot;ellipse;whiteSpace=wrap;html=1;aspect=fixed;shadow=0;rounded=0;labelBackgroundColor=none;sketch=1;curveFitting=1;jiggle=2;fillColor=#660033;strokeColor=#003366;fontColor=#E4FDE1;container=0;fillStyle=cross-hatch;movable=1;resizable=1;rotatable=1;deletable=1;editable=1;locked=0;connectable=1;strokeWidth=5;&quot; parent=&quot;9_yundcjcufTjwk7wA7y-1&quot; vertex=&quot;1&quot;&gt;&#10;          &lt;mxGeometry x=&quot;200&quot; y=&quot;40&quot; width=&quot;80&quot; height=&quot;80&quot; as=&quot;geometry&quot; /&gt;&#10;        &lt;/mxCell&gt;&#10;        &lt;mxCell id=&quot;zBknXudiURap7mkD7rTB-6&quot; value=&quot;&quot; style=&quot;ellipse;whiteSpace=wrap;html=1;aspect=fixed;shadow=0;rounded=0;labelBackgroundColor=none;sketch=1;curveFitting=1;jiggle=2;fillColor=#660033;strokeColor=#003366;fontColor=#E4FDE1;container=0;fillStyle=cross-hatch;movable=1;resizable=1;rotatable=1;deletable=1;editable=1;locked=0;connectable=1;strokeWidth=5;&quot; parent=&quot;9_yundcjcufTjwk7wA7y-1&quot; vertex=&quot;1&quot;&gt;&#10;          &lt;mxGeometry x=&quot;40&quot; y=&quot;200&quot; width=&quot;80&quot; height=&quot;80&quot; as=&quot;geometry&quot; /&gt;&#10;        &lt;/mxCell&gt;&#10;        &lt;mxCell id=&quot;zBknXudiURap7mkD7rTB-7&quot; value=&quot;&quot; style=&quot;ellipse;whiteSpace=wrap;html=1;aspect=fixed;shadow=0;rounded=0;labelBackgroundColor=none;sketch=1;curveFitting=1;jiggle=2;fillColor=#660033;strokeColor=#003366;fontColor=#E4FDE1;container=0;fillStyle=cross-hatch;movable=1;resizable=1;rotatable=1;deletable=1;editable=1;locked=0;connectable=1;strokeWidth=5;&quot; parent=&quot;9_yundcjcufTjwk7wA7y-1&quot; vertex=&quot;1&quot;&gt;&#10;          &lt;mxGeometry x=&quot;200&quot; y=&quot;360&quot; width=&quot;80&quot; height=&quot;80&quot; as=&quot;geometry&quot; /&gt;&#10;        &lt;/mxCell&gt;&#10;        &lt;mxCell id=&quot;zBknXudiURap7mkD7rTB-8&quot; value=&quot;&quot; style=&quot;ellipse;whiteSpace=wrap;html=1;aspect=fixed;shadow=0;rounded=0;labelBackgroundColor=none;sketch=1;curveFitting=1;jiggle=2;fillColor=#660033;strokeColor=#003366;fontColor=#E4FDE1;container=0;fillStyle=cross-hatch;movable=1;resizable=1;rotatable=1;deletable=1;editable=1;locked=0;connectable=1;strokeWidth=5;&quot; parent=&quot;9_yundcjcufTjwk7wA7y-1&quot; vertex=&quot;1&quot;&gt;&#10;          &lt;mxGeometry x=&quot;360&quot; y=&quot;200&quot; width=&quot;80&quot; height=&quot;80&quot; as=&quot;geometry&quot; /&gt;&#10;        &lt;/mxCell&gt;&#10;        &lt;mxCell id=&quot;zBknXudiURap7mkD7rTB-9&quot; value=&quot;&quot; style=&quot;ellipse;whiteSpace=wrap;html=1;aspect=fixed;fillStyle=cross-hatch;shadow=0;rounded=0;labelBackgroundColor=none;sketch=1;curveFitting=1;jiggle=2;fillColor=#660033;strokeColor=#003366;fontColor=#E4FDE1;container=0;movable=1;resizable=1;rotatable=1;deletable=1;editable=1;locked=0;connectable=1;strokeWidth=5;&quot; parent=&quot;9_yundcjcufTjwk7wA7y-1&quot; vertex=&quot;1&quot;&gt;&#10;          &lt;mxGeometry x=&quot;180&quot; y=&quot;180&quot; width=&quot;120&quot; height=&quot;120&quot; as=&quot;geometry&quot; /&gt;&#10;        &lt;/mxCell&gt;&#10;        &lt;mxCell id=&quot;zBknXudiURap7mkD7rTB-11&quot; value=&quot;&quot; style=&quot;shape=link;endArrow=classic;startArrow=classic;html=1;rounded=0;endWidth=0;shadow=0;width=10;labelBackgroundColor=none;fontColor=default;sketch=1;curveFitting=1;jiggle=2;strokeColor=#003366;movable=1;resizable=1;rotatable=1;deletable=1;editable=1;locked=0;connectable=1;strokeWidth=5;&quot; parent=&quot;9_yundcjcufTjwk7wA7y-1&quot; source=&quot;zBknXudiURap7mkD7rTB-9&quot; target=&quot;zBknXudiURap7mkD7rTB-1&quot; edge=&quot;1&quot;&gt;&#10;          &lt;mxGeometry width=&quot;100&quot; height=&quot;100&quot; relative=&quot;1&quot; as=&quot;geometry&quot;&gt;&#10;            &lt;mxPoint x=&quot;490&quot; y=&quot;410&quot; as=&quot;sourcePoint&quot; /&gt;&#10;            &lt;mxPoint x=&quot;590&quot; y=&quot;310&quot; as=&quot;targetPoint&quot; /&gt;&#10;          &lt;/mxGeometry&gt;&#10;        &lt;/mxCell&gt;&#10;        &lt;mxCell id=&quot;zBknXudiURap7mkD7rTB-12&quot; value=&quot;&quot; style=&quot;shape=link;endArrow=classic;startArrow=classic;html=1;rounded=0;endWidth=0;shadow=0;width=10;labelBackgroundColor=none;fontColor=default;sketch=1;curveFitting=1;jiggle=2;strokeColor=#003366;movable=1;resizable=1;rotatable=1;deletable=1;editable=1;locked=0;connectable=1;strokeWidth=5;&quot; parent=&quot;9_yundcjcufTjwk7wA7y-1&quot; source=&quot;zBknXudiURap7mkD7rTB-9&quot; target=&quot;zBknXudiURap7mkD7rTB-5&quot; edge=&quot;1&quot;&gt;&#10;          &lt;mxGeometry width=&quot;100&quot; height=&quot;100&quot; relative=&quot;1&quot; as=&quot;geometry&quot;&gt;&#10;            &lt;mxPoint x=&quot;528&quot; y=&quot;328&quot; as=&quot;sourcePoint&quot; /&gt;&#10;            &lt;mxPoint x=&quot;398&quot; y=&quot;198&quot; as=&quot;targetPoint&quot; /&gt;&#10;          &lt;/mxGeometry&gt;&#10;        &lt;/mxCell&gt;&#10;        &lt;mxCell id=&quot;zBknXudiURap7mkD7rTB-13&quot; value=&quot;&quot; style=&quot;shape=link;endArrow=classic;startArrow=classic;html=1;rounded=0;endWidth=0;shadow=0;width=10;labelBackgroundColor=none;fontColor=default;sketch=1;curveFitting=1;jiggle=2;strokeColor=#003366;movable=1;resizable=1;rotatable=1;deletable=1;editable=1;locked=0;connectable=1;strokeWidth=5;&quot; parent=&quot;9_yundcjcufTjwk7wA7y-1&quot; source=&quot;zBknXudiURap7mkD7rTB-9&quot; target=&quot;zBknXudiURap7mkD7rTB-2&quot; edge=&quot;1&quot;&gt;&#10;          &lt;mxGeometry width=&quot;100&quot; height=&quot;100&quot; relative=&quot;1&quot; as=&quot;geometry&quot;&gt;&#10;            &lt;mxPoint x=&quot;538&quot; y=&quot;338&quot; as=&quot;sourcePoint&quot; /&gt;&#10;            &lt;mxPoint x=&quot;408&quot; y=&quot;208&quot; as=&quot;targetPoint&quot; /&gt;&#10;          &lt;/mxGeometry&gt;&#10;        &lt;/mxCell&gt;&#10;        &lt;mxCell id=&quot;zBknXudiURap7mkD7rTB-14&quot; value=&quot;&quot; style=&quot;shape=link;endArrow=classic;startArrow=classic;html=1;rounded=0;endWidth=0;shadow=0;width=10;labelBackgroundColor=none;fontColor=default;sketch=1;curveFitting=1;jiggle=2;strokeColor=#003366;movable=1;resizable=1;rotatable=1;deletable=1;editable=1;locked=0;connectable=1;strokeWidth=5;&quot; parent=&quot;9_yundcjcufTjwk7wA7y-1&quot; source=&quot;zBknXudiURap7mkD7rTB-7&quot; target=&quot;zBknXudiURap7mkD7rTB-9&quot; edge=&quot;1&quot;&gt;&#10;          &lt;mxGeometry width=&quot;100&quot; height=&quot;100&quot; relative=&quot;1&quot; as=&quot;geometry&quot;&gt;&#10;            &lt;mxPoint x=&quot;548&quot; y=&quot;348&quot; as=&quot;sourcePoint&quot; /&gt;&#10;            &lt;mxPoint x=&quot;418&quot; y=&quot;218&quot; as=&quot;targetPoint&quot; /&gt;&#10;          &lt;/mxGeometry&gt;&#10;        &lt;/mxCell&gt;&#10;        &lt;mxCell id=&quot;zBknXudiURap7mkD7rTB-15&quot; value=&quot;&quot; style=&quot;shape=link;endArrow=classic;startArrow=classic;html=1;rounded=0;endWidth=0;shadow=0;width=10;labelBackgroundColor=none;fontColor=default;sketch=1;curveFitting=1;jiggle=2;strokeColor=#003366;movable=1;resizable=1;rotatable=1;deletable=1;editable=1;locked=0;connectable=1;strokeWidth=5;&quot; parent=&quot;9_yundcjcufTjwk7wA7y-1&quot; source=&quot;zBknXudiURap7mkD7rTB-9&quot; target=&quot;zBknXudiURap7mkD7rTB-6&quot; edge=&quot;1&quot;&gt;&#10;          &lt;mxGeometry width=&quot;100&quot; height=&quot;100&quot; relative=&quot;1&quot; as=&quot;geometry&quot;&gt;&#10;            &lt;mxPoint x=&quot;558&quot; y=&quot;358&quot; as=&quot;sourcePoint&quot; /&gt;&#10;            &lt;mxPoint x=&quot;428&quot; y=&quot;228&quot; as=&quot;targetPoint&quot; /&gt;&#10;          &lt;/mxGeometry&gt;&#10;        &lt;/mxCell&gt;&#10;        &lt;mxCell id=&quot;zBknXudiURap7mkD7rTB-16&quot; value=&quot;&quot; style=&quot;shape=link;endArrow=classic;startArrow=classic;html=1;rounded=0;endWidth=0;entryX=1;entryY=0;entryDx=0;entryDy=0;shadow=0;width=10;labelBackgroundColor=none;fontColor=default;sketch=1;curveFitting=1;jiggle=2;strokeColor=#003366;movable=1;resizable=1;rotatable=1;deletable=1;editable=1;locked=0;connectable=1;strokeWidth=5;&quot; parent=&quot;9_yundcjcufTjwk7wA7y-1&quot; source=&quot;zBknXudiURap7mkD7rTB-9&quot; target=&quot;zBknXudiURap7mkD7rTB-3&quot; edge=&quot;1&quot;&gt;&#10;          &lt;mxGeometry width=&quot;100&quot; height=&quot;100&quot; relative=&quot;1&quot; as=&quot;geometry&quot;&gt;&#10;            &lt;mxPoint x=&quot;568&quot; y=&quot;368&quot; as=&quot;sourcePoint&quot; /&gt;&#10;            &lt;mxPoint x=&quot;438&quot; y=&quot;238&quot; as=&quot;targetPoint&quot; /&gt;&#10;          &lt;/mxGeometry&gt;&#10;        &lt;/mxCell&gt;&#10;        &lt;mxCell id=&quot;zBknXudiURap7mkD7rTB-17&quot; value=&quot;&quot; style=&quot;shape=link;endArrow=classic;startArrow=classic;html=1;rounded=0;endWidth=0;shadow=0;width=10;labelBackgroundColor=none;fontColor=default;sketch=1;curveFitting=1;jiggle=2;strokeColor=#003366;movable=1;resizable=1;rotatable=1;deletable=1;editable=1;locked=0;connectable=1;strokeWidth=5;&quot; parent=&quot;9_yundcjcufTjwk7wA7y-1&quot; source=&quot;zBknXudiURap7mkD7rTB-4&quot; target=&quot;zBknXudiURap7mkD7rTB-9&quot; edge=&quot;1&quot;&gt;&#10;          &lt;mxGeometry width=&quot;100&quot; height=&quot;100&quot; relative=&quot;1&quot; as=&quot;geometry&quot;&gt;&#10;            &lt;mxPoint x=&quot;578&quot; y=&quot;378&quot; as=&quot;sourcePoint&quot; /&gt;&#10;            &lt;mxPoint x=&quot;448&quot; y=&quot;248&quot; as=&quot;targetPoint&quot; /&gt;&#10;          &lt;/mxGeometry&gt;&#10;        &lt;/mxCell&gt;&#10;        &lt;mxCell id=&quot;zBknXudiURap7mkD7rTB-18&quot; value=&quot;&quot; style=&quot;shape=link;endArrow=classic;startArrow=classic;html=1;rounded=0;endWidth=0;shadow=0;width=10;labelBackgroundColor=none;fontColor=default;sketch=1;curveFitting=1;jiggle=2;strokeColor=#003366;movable=1;resizable=1;rotatable=1;deletable=1;editable=1;locked=0;connectable=1;strokeWidth=5;&quot; parent=&quot;9_yundcjcufTjwk7wA7y-1&quot; source=&quot;zBknXudiURap7mkD7rTB-8&quot; target=&quot;zBknXudiURap7mkD7rTB-9&quot; edge=&quot;1&quot;&gt;&#10;          &lt;mxGeometry width=&quot;100&quot; height=&quot;100&quot; relative=&quot;1&quot; as=&quot;geometry&quot;&gt;&#10;            &lt;mxPoint x=&quot;588&quot; y=&quot;388&quot; as=&quot;sourcePoint&quot; /&gt;&#10;            &lt;mxPoint x=&quot;458&quot; y=&quot;258&quot; as=&quot;targetPoint&quot; /&gt;&#10;          &lt;/mxGeometry&gt;&#10;        &lt;/mxCell&gt;&#10;      &lt;/root&gt;&#10;    &lt;/mxGraphModel&gt;&#10;  &lt;/diagram&gt;&#10;&lt;/mxfile&gt;&#10;"><defs><filter id="dropShadow"><feGaussianBlur in="SourceAlpha" stdDeviation="1.7" result="blur"/><feOffset in="blur" dx="3" dy="3" result="offsetBlur"/><feFlood flood-color="#3D4574" flood-opacity="0.4" result="offsetColor"/><feComposite in="offsetColor" in2="offsetBlur" operator="in" result="offsetBlur"/><feBlend in="SourceGraphic" in2="offsetBlur"/></filter></defs><g filter="url(#dropShadow)"><ellipse cx="42" cy="42" rx="40" ry="40" fill="none" stroke="none" pointer-events="all"/><path d="M 15.21 12.67 C 15.21 12.67 15.21 12.67 15.21 12.67 M 15.21 12.67 C 15.21 12.67 15.21 12.67 15.21 12.67 M 15.87 42.4 C 25.18 37.33 31.5 21.46 46.05 7.68 M 15.87 42.4 C 27.26 30.15 36.69 19.85 46.05 7.68 M 17.84 70.61 C 30.76 49.22 53.6 30.97 68.36 12.5 M 17.84 70.61 C 38.14 48.24 56.21 24.77 68.36 12.5 M 31.62 85.24 C 48.15 67.61 61.58 47.94 80.17 29.4 M 31.62 85.24 C 45.2 69.28 57.2 53.9 80.17 29.4 M 22.81 77.1 C 22.81 77.1 22.81 77.1 22.81 77.1 M 22.81 77.1 C 22.81 77.1 22.81 77.1 22.81 77.1 M 52.53 76.44 C 45.74 66.16 40.4 62.13 17.06 45.6 M 52.53 76.44 C 43.87 67.9 33.8 58.81 17.06 45.6 M 72.45 67.25 C 52.84 50.86 42.36 38.29 16.6 18.7 M 72.45 67.25 C 52.24 48.6 28.58 29.87 16.6 18.7 M 82.55 49.53 C 69.78 34.85 51.06 21.29 25.95 0.32 M 82.55 49.53 C 62.35 30.94 36.9 8.57 25.95 0.32" fill="none" stroke="#660033" stroke-width="2.5" stroke-linejoin="round" stroke-linecap="round" stroke-miterlimit="10" pointer-events="all"/><path d="M 39.27 1.66 C 46.58 0.65 55.1 1.92 61.47 6.25 C 67.85 10.57 74.08 20.35 77.53 27.62 C 80.98 34.9 83.44 42.72 82.18 49.87 C 80.91 57.03 75.97 64.94 69.94 70.55 C 63.9 76.15 53.8 82.39 45.97 83.5 C 38.14 84.61 29.85 81.2 22.94 77.21 C 16.03 73.23 7.58 67.03 4.51 59.56 C 1.44 52.1 2.71 40.27 4.51 32.43 C 6.31 24.59 9.73 17.38 15.32 12.54 C 20.92 7.7 32.62 4.98 38.09 3.38 C 43.56 1.78 45.49 2.75 48.15 2.95 C 50.82 3.14 54.61 4.18 54.09 4.54 M 58.28 6.77 C 65.03 9.78 76.32 16.29 80.65 22.86 C 84.98 29.43 86.37 38.62 84.29 46.19 C 82.2 53.75 74.5 62.23 68.13 68.26 C 61.76 74.29 53.03 80.65 46.08 82.38 C 39.13 84.11 32.81 82.14 26.44 78.64 C 20.07 75.15 11.44 68.73 7.88 61.4 C 4.32 54.07 3.83 42.29 5.08 34.65 C 6.34 27.01 10.36 20.51 15.39 15.56 C 20.42 10.6 27.68 6.5 35.27 4.92 C 42.86 3.34 56.37 6 60.92 6.08 C 65.46 6.15 62.17 4.64 62.55 5.36 C 62.92 6.09 63.26 9.38 63.19 10.43" fill="none" stroke="#003366" stroke-width="5" stroke-linejoin="round" stroke-linecap="round" stroke-miterlimit="10" pointer-events="all"/><ellipse cx="442" cy="42" rx="40" ry="40" fill="none" stroke="none" pointer-events="all"/><path d="M 418.07 10.42 C 418.07 10.42 418.07 10.42 418.07 10.42 M 418.07 10.42 C 418.07 10.42 418.07 10.42 418.07 10.42 M 404.3 56.75 C 423.66 36.69 437.66 21.7 447.6 6.94 M 404.3 56.75 C 418.71 40.13 431.76 25.19 447.6 6.94 M 416.11 73.65 C 431.78 54.25 445.15 40.47 469.25 12.51 M 416.11 73.65 C 439.66 50.28 459.3 25.93 469.25 12.51 M 430.55 87.52 C 443.23 74.4 453.53 59.01 480.41 30.16 M 430.55 87.52 C 444.66 74.98 454.32 59.66 480.41 30.16 M 417.21 76.09 C 417.21 76.09 417.21 76.09 417.21 76.09 M 417.21 76.09 C 417.21 76.09 417.21 76.09 417.21 76.09 M 447.69 76.08 C 436.61 65.8 432.14 58.57 411.47 44.59 M 447.69 76.08 C 434.18 64.74 422.53 52.12 411.47 44.59 M 469.87 68.86 C 455.74 61.25 443.41 49.01 413.27 19.66 M 469.87 68.86 C 447.49 50.08 431.34 33.22 413.27 19.66 M 482.24 53.11 C 465.13 40.71 443.43 26.06 425.64 3.91 M 482.24 53.11 C 467.23 39.22 451.09 27.56 425.64 3.91 M 483.28 27.52 C 472.5 18.02 458.41 4.08 447.81 -3.31 M 483.28 27.52 C 476.85 20.44 466.74 13.86 447.81 -3.31" fill="none" stroke="#660033" stroke-width="2.5" stroke-linejoin="round" stroke-linecap="round" stroke-miterlimit="10" pointer-events="all"/><path d="M 421.31 8.54 C 427.06 3.9 435.71 2.63 443.07 2.69 C 450.44 2.75 459.27 4.33 465.5 8.9 C 471.72 13.46 478.01 22.17 480.41 30.09 C 482.82 38.02 482.51 49.02 479.9 56.42 C 477.3 63.83 471.25 70.03 464.8 74.53 C 458.35 79.04 449.18 83.24 441.2 83.46 C 433.22 83.67 423.32 80.52 416.92 75.83 C 410.51 71.14 404.95 62.96 402.78 55.34 C 400.61 47.72 401.33 37.61 403.9 30.1 C 406.47 22.59 411.62 14.79 418.19 10.28 C 424.75 5.78 435.71 3.09 443.29 3.08 C 450.86 3.08 463.8 9.5 463.62 10.24 M 474.38 17.73 C 478.84 23.57 479 33.78 479.35 41.71 C 479.7 49.65 480.55 58.82 476.48 65.33 C 472.4 71.84 462.68 78.33 454.9 80.78 C 447.13 83.24 437.23 82.37 429.82 80.07 C 422.42 77.77 415.39 72.64 410.46 67 C 405.53 61.36 400.9 54.19 400.25 46.21 C 399.6 38.24 402.42 25.91 406.59 19.16 C 410.75 12.41 417.37 8.46 425.24 5.72 C 433.11 2.97 445.67 0.58 453.8 2.71 C 461.93 4.83 471.05 15.65 474.02 18.48 C 477 21.31 471.54 19.81 471.65 19.69 C 471.77 19.57 474.47 17.97 474.7 17.73" fill="none" stroke="#003366" stroke-width="5" stroke-linejoin="round" stroke-linecap="round" stroke-miterlimit="10" pointer-events="all"/><ellipse cx="42" cy="442" rx="40" ry="40" fill="none" stroke="none" pointer-events="all"/><path d="M 5.79 423.19 C 5.79 423.19 5.79 423.19 5.79 423.19 M 5.79 423.19 C 5.79 423.19 5.79 423.19 5.79 423.19 M 8.42 450.65 C 13.81 441.64 27.48 429.94 38.59 415.93 M 8.42 450.65 C 18.93 438.46 30.72 425.09 38.59 415.93 M 16.95 471.32 C 25.34 456.25 35.28 449.19 64.84 416.22 M 16.95 471.32 C 34.24 448.38 56.41 426.64 64.84 416.22 M 33.36 482.93 C 43.93 466.97 58.55 456.48 82.56 426.33 M 33.36 482.93 C 41.25 470.41 52.06 459.74 82.56 426.33 M 10.81 465.87 C 10.81 465.87 10.81 465.87 10.81 465.87 M 10.81 465.87 C 10.81 465.87 10.81 465.87 10.81 465.87 M 56.38 478.99 C 45.65 464.34 30.73 459.02 6.57 435.69 M 56.38 478.99 C 43.17 466.52 29.61 453.54 6.57 435.69 M 71.76 465.86 C 49.26 450.99 31.21 428.77 12.9 414.69 M 71.76 465.86 C 50.76 446.49 33.65 431.1 12.9 414.69 M 85.64 451.42 C 65.92 430.83 49 422.88 28.28 401.56 M 85.64 451.42 C 66.2 433.9 47.81 418.88 28.28 401.56" fill="none" stroke="#660033" stroke-width="2.5" stroke-linejoin="round" stroke-linecap="round" stroke-miterlimit="10" pointer-events="all"/><path d="M 72.11 417.08 C 76.98 422.28 82.3 431.16 82.8 438.93 C 83.3 446.69 79.65 456.9 75.14 463.65 C 70.63 470.39 63.09 476.49 55.73 479.39 C 48.36 482.29 38.44 483.28 30.96 481.04 C 23.48 478.79 16 472.17 10.86 465.92 C 5.72 459.67 0.99 450.65 0.13 443.54 C -0.72 436.42 1.42 429.74 5.74 423.25 C 10.06 416.75 18.65 407.89 26.05 404.57 C 33.46 401.25 42.68 401.61 50.18 403.31 C 57.67 405.02 65.47 408.31 71.03 414.82 C 76.58 421.32 83.03 434.29 83.5 442.37 C 83.97 450.46 74.44 463.52 73.85 463.33 M 15.35 411.62 C 20.72 406.31 29.95 401.07 37.85 400.38 C 45.75 399.7 56.01 403.21 62.75 407.52 C 69.48 411.82 75.56 419.22 78.25 426.21 C 80.95 433.21 80.28 442.09 78.91 449.47 C 77.55 456.85 75.5 464.76 70.06 470.5 C 64.63 476.24 54.32 483.26 46.3 483.91 C 38.29 484.57 28.66 478.76 21.98 474.43 C 15.3 470.11 9.58 464.27 6.21 457.96 C 2.85 451.65 -0.03 444.29 1.79 436.58 C 3.62 428.86 14.52 415.95 17.16 411.68 C 19.8 407.41 17.41 410.51 17.63 410.95 C 17.85 411.39 17.77 413.56 18.46 414.31" fill="none" stroke="#003366" stroke-width="5" stroke-linejoin="round" stroke-linecap="round" stroke-miterlimit="10" pointer-events="all"/><ellipse cx="442" cy="442" rx="40" ry="40" fill="none" stroke="none" pointer-events="all"/><path d="M 411.34 419.3 C 411.34 419.3 411.34 419.3 411.34 419.3 M 411.34 419.3 C 411.34 419.3 411.34 419.3 411.34 419.3 M 413.31 447.51 C 417.29 436.5 427.17 430.86 441.52 415.06 M 413.31 447.51 C 422.01 436.68 432.3 424.53 441.52 415.06 M 418.56 471.96 C 439.43 447.69 457.62 425.92 468.42 414.6 M 418.56 471.96 C 436.5 448.25 455.99 425.91 468.42 414.6 M 433.66 485.08 C 449.6 461.09 470.31 444.28 482.2 429.23 M 433.66 485.08 C 451.33 461.36 473.05 440.12 482.2 429.23 M 426.95 479.49 C 426.95 479.49 426.95 479.49 426.95 479.49 M 426.95 479.49 C 426.95 479.49 426.95 479.49 426.95 479.49 M 455.17 477.51 C 440.55 461.55 426.81 453.31 406.86 435.53 M 455.17 477.51 C 436.22 461.89 416.44 444.81 406.86 435.53 M 474.32 467.67 C 457.52 453.67 445.79 439.94 414.7 415.84 M 474.32 467.67 C 455.29 450.56 437.79 437.13 414.7 415.84 M 488.2 453.23 C 473.88 434.71 453.74 417.47 430.09 402.71 M 488.2 453.23 C 475.87 444.37 462.73 432 430.09 402.71" fill="none" stroke="#660033" stroke-width="2.5" stroke-linejoin="round" stroke-linecap="round" stroke-miterlimit="10" pointer-events="all"/><path d="M 457.06 405.18 C 463.88 407.71 469.58 415.07 473.71 421.82 C 477.84 428.57 481.6 438 481.83 445.68 C 482.05 453.36 479.7 462.24 475.06 467.9 C 470.42 473.55 461.94 477.63 453.98 479.61 C 446.02 481.6 434.72 482.45 427.3 479.8 C 419.88 477.14 413.42 470.45 409.45 463.69 C 405.49 456.94 403.27 446.61 403.52 439.28 C 403.78 431.94 406.72 425.48 411.01 419.68 C 415.29 413.87 422.25 407.25 429.24 404.44 C 436.24 401.63 446.65 401.59 452.99 402.81 C 459.33 404.04 464.06 409.34 467.28 411.79 C 470.5 414.24 473.05 417.48 472.32 417.52 M 433.51 404.59 C 439.95 402.25 448.2 403.79 454.72 405.84 C 461.24 407.88 468.16 410.18 472.64 416.88 C 477.12 423.57 481.74 437.35 481.61 445.99 C 481.49 454.63 476.75 462.57 471.9 468.72 C 467.05 474.88 460.02 480.6 452.51 482.89 C 445.01 485.18 433.65 485.74 426.88 482.46 C 420.11 479.18 416.49 470.07 411.89 463.21 C 407.29 456.36 399.48 448.69 399.27 441.33 C 399.07 433.98 405.31 424.95 410.65 419.06 C 416 413.17 428.31 408.97 431.33 406 C 434.36 403.04 428.7 401.63 428.81 401.29 C 428.92 400.96 431.04 403.22 432 403.99" fill="none" stroke="#003366" stroke-width="5" stroke-linejoin="round" stroke-linecap="round" stroke-miterlimit="10" pointer-events="all"/><ellipse cx="242" cy="82" rx="40" ry="40" fill="none" stroke="none" pointer-events="all"/><path d="M 211.2 55.84 C 211.2 55.84 211.2 55.84 211.2 55.84 M 211.2 55.84 C 211.2 55.84 211.2 55.84 211.2 55.84 M 211.2 86.32 C 221.59 72.33 235.5 63.76 244 48.59 M 211.2 86.32 C 224.37 73.19 235.37 59.74 244 48.59 M 218.42 108.5 C 230.69 89.46 246.34 73.38 266.97 52.65 M 218.42 108.5 C 235.72 87.53 255.26 62.06 266.97 52.65 M 230.89 124.64 C 251.36 104.76 269.28 83.83 281.41 66.53 M 230.89 124.64 C 247.22 103.9 266.96 82.3 281.41 66.53 M 255.17 127.2 C 262.25 118.34 274.77 101.42 285.35 92.48 M 255.17 127.2 C 263.18 114.78 273.06 105 285.35 92.48 M 223.29 117.79 C 223.29 117.79 223.29 117.79 223.29 117.79 M 223.29 117.79 C 223.29 117.79 223.29 117.79 223.29 117.79 M 250.75 115.16 C 230.68 96.22 210.38 84.99 203.2 73.83 M 250.75 115.16 C 235.49 101.28 221.31 93.04 203.2 73.83 M 273.68 108.6 C 253.75 91.36 237.4 71.96 211.79 54.8 M 273.68 108.6 C 256.08 93.69 239.77 81.17 211.79 54.8 M 282.27 89.57 C 269.94 79.93 253.67 61.53 232.46 46.27 M 282.27 89.57 C 264.55 72.75 245.75 58 232.46 46.27" fill="none" stroke="#660033" stroke-width="2.5" stroke-linejoin="round" stroke-linecap="round" stroke-miterlimit="10" pointer-events="all"/><path d="M 238.15 43.05 C 245.06 41.65 253.14 43.03 259.79 46.39 C 266.44 49.74 274.3 55.93 278.03 63.17 C 281.76 70.42 283.5 81.7 282.19 89.85 C 280.87 98 275.96 107.09 270.16 112.08 C 264.35 117.08 255.13 118.83 247.34 119.81 C 239.56 120.78 230.03 121.31 223.45 117.93 C 216.86 114.55 211.66 106.36 207.81 99.55 C 203.96 92.75 199.74 84.43 200.34 77.1 C 200.94 69.78 205.54 60.97 211.42 55.58 C 217.31 50.19 227.89 46.86 235.64 44.77 C 243.38 42.67 251.92 40.74 257.89 43 C 263.86 45.26 271.79 57.18 271.48 58.35 M 247.45 43.92 C 254.79 43.97 263.39 46.15 269.33 51.49 C 275.26 56.83 281.57 67.93 283.08 75.95 C 284.59 83.96 282.28 92.58 278.38 99.59 C 274.47 106.6 266.19 114.09 259.63 117.99 C 253.07 121.89 246.36 124.52 239.02 122.98 C 231.67 121.44 221.86 114.56 215.55 108.75 C 209.24 102.95 202.93 95.47 201.16 88.13 C 199.39 80.79 201.98 71.82 204.94 64.69 C 207.89 57.57 211.76 49.4 218.88 45.38 C 226 41.36 242.82 40.81 247.63 40.58 C 252.44 40.35 247.81 43.11 247.76 43.99 C 247.7 44.88 247.07 45.22 247.28 45.89" fill="none" stroke="#003366" stroke-width="5" stroke-linejoin="round" stroke-linecap="round" stroke-miterlimit="10" pointer-events="all"/><ellipse cx="82" cy="242" rx="40" ry="40" fill="none" stroke="none" pointer-events="all"/><path d="M 56.51 211.55 C 56.51 211.55 56.51 211.55 56.51 211.55 M 56.51 211.55 C 56.51 211.55 56.51 211.55 56.51 211.55 M 44.05 256.37 C 56.25 244.63 69.59 230.43 88 205.81 M 44.05 256.37 C 59.86 238.24 73.75 220.98 88 205.81 M 57.83 271 C 72.69 254.13 78.76 242.63 108.35 212.89 M 57.83 271 C 78.05 249.26 98.93 227.17 108.35 212.89 M 72.27 284.88 C 88.07 270.49 102.02 246.8 121.47 228.27 M 72.27 284.88 C 88.35 266.49 104.94 249.88 121.47 228.27 M 61.48 274.97 C 61.48 274.97 61.48 274.97 61.48 274.97 M 61.48 274.97 C 61.48 274.97 61.48 274.97 61.48 274.97 M 92.71 275.62 C 77.08 265.87 64.45 250.68 42.9 232.32 M 92.71 275.62 C 72.25 258.89 52.27 240.76 42.9 232.32 M 111.87 265.78 C 91.68 246.6 73.91 232.57 54.51 215.92 M 111.87 265.78 C 95.81 251.76 82.62 239.22 54.51 215.92 M 122.73 248.72 C 102.39 233.15 85.01 214.36 66.88 200.17 M 122.73 248.72 C 100.69 231.83 84.11 213.69 66.88 200.17" fill="none" stroke="#660033" stroke-width="2.5" stroke-linejoin="round" stroke-linecap="round" stroke-miterlimit="10" pointer-events="all"/><path d="M 56.72 211.3 C 62.48 205.74 72.99 200.58 81.01 200.26 C 89.03 199.94 98.54 205.07 104.86 209.39 C 111.18 213.71 116.61 218.87 118.94 226.17 C 121.28 233.47 121.09 245.29 118.87 253.18 C 116.64 261.06 111.08 268.55 105.61 273.47 C 100.14 278.4 93.42 282.5 86.04 282.73 C 78.66 282.96 68.32 279.32 61.33 274.85 C 54.34 270.37 47.43 262.7 44.09 255.88 C 40.74 249.05 39.24 241.03 41.28 233.89 C 43.32 226.75 49.14 218.57 56.34 213.02 C 63.54 207.46 76.1 200.24 84.48 200.55 C 92.86 200.86 107.09 213.97 106.59 214.9 M 100.49 209.78 C 107.51 213.15 115.96 221.18 119.38 227.92 C 122.81 234.67 122.74 243.17 121.03 250.25 C 119.32 257.33 115.3 265.21 109.15 270.42 C 103 275.63 92.27 280.49 84.12 281.51 C 75.97 282.52 67.16 280.73 60.24 276.51 C 53.33 272.28 45.53 263.61 42.64 256.14 C 39.74 248.66 40.53 239.21 42.87 231.64 C 45.21 224.06 51.05 215.38 56.66 210.67 C 62.27 205.95 68.72 203.84 76.51 203.36 C 84.3 202.87 99.51 207.1 103.39 207.74 C 107.27 208.39 100.09 207.15 99.8 207.23 C 99.52 207.31 101.2 207.73 101.67 208.21" fill="none" stroke="#003366" stroke-width="5" stroke-linejoin="round" stroke-linecap="round" stroke-miterlimit="10" pointer-events="all"/><ellipse cx="242" cy="402" rx="40" ry="40" fill="none" stroke="none" pointer-events="all"/><path d="M 206.5 383.01 C 206.5 383.01 206.5 383.01 206.5 383.01 M 206.5 383.01 C 206.5 383.01 206.5 383.01 206.5 383.01 M 206.5 413.49 C 225.19 390.62 242.64 373.39 249.8 363.68 M 206.5 413.49 C 220.89 396.61 233.72 380.08 249.8 363.68 M 217.66 431.14 C 236.66 405.47 258.66 387.63 268.18 373.03 M 217.66 431.14 C 227.64 419.14 238.97 408.95 268.18 373.03 M 235.38 441.25 C 246.64 424.2 264.73 413.63 283.27 386.15 M 235.38 441.25 C 249.03 427.09 262.55 411.38 283.27 386.15 M 215.33 428.75 C 215.33 428.75 215.33 428.75 215.33 428.75 M 215.33 428.75 C 215.33 428.75 215.33 428.75 215.33 428.75 M 246.56 429.4 C 238.2 422.55 223.38 408.45 211.84 399.22 M 246.56 429.4 C 234.48 421.28 226.14 411.11 211.84 399.22 M 270.25 423.49 C 256 413.47 244.84 400.17 213.64 374.29 M 270.25 423.49 C 256.51 409.74 243.32 399.49 213.64 374.29 M 285.63 410.37 C 268.71 396.86 248.11 376.76 229.03 361.16 M 285.63 410.37 C 274.48 401.95 258.95 390.28 229.03 361.16" fill="none" stroke="#660033" stroke-width="2.5" stroke-linejoin="round" stroke-linecap="round" stroke-miterlimit="10" pointer-events="all"/><path d="M 271.98 375.97 C 277.58 380.95 282.31 390.39 283.37 397.62 C 284.42 404.85 282.57 412.77 278.32 419.34 C 274.06 425.91 264.89 433.4 257.83 437.04 C 250.76 440.67 242.99 442.53 235.9 441.15 C 228.82 439.77 220.89 433.97 215.31 428.74 C 209.73 423.51 203.91 417.36 202.42 409.76 C 200.93 402.17 202.8 390.2 206.36 383.17 C 209.91 376.15 216.56 370.86 223.75 367.63 C 230.94 364.4 241.87 362.79 249.48 363.8 C 257.09 364.8 264.5 370.27 269.42 373.66 C 274.33 377.04 276.8 380.31 278.98 384.1 C 281.16 387.9 283.31 396.16 282.5 396.41 M 276.1 381.29 C 280.71 386.42 283.96 393.97 283.36 400.94 C 282.77 407.91 277.18 416.21 272.54 423.11 C 267.9 430 262.98 439.75 255.54 442.31 C 248.1 444.87 235.38 441.46 227.92 438.46 C 220.45 435.46 215.1 430.58 210.74 424.3 C 206.37 418.02 201.67 408.75 201.72 400.77 C 201.78 392.79 206.86 382.96 211.06 376.41 C 215.26 369.86 219.58 363.87 226.91 361.45 C 234.23 359.03 246.82 359.67 255 361.88 C 263.19 364.09 272.8 372.35 276.03 374.72 C 279.27 377.09 274.97 374.89 274.42 376.11 C 273.86 377.33 272.92 380.87 272.7 382.05" fill="none" stroke="#003366" stroke-width="5" stroke-linejoin="round" stroke-linecap="round" stroke-miterlimit="10" pointer-events="all"/><ellipse cx="402" cy="242" rx="40" ry="40" fill="none" stroke="none" pointer-events="all"/><path d="M 369.55 220 C 369.55 220 369.55 220 369.55 220 M 369.55 220 C 369.55 220 369.55 220 369.55 220 M 369.55 250.48 C 385.62 234.95 398.09 217.17 410.88 202.93 M 369.55 250.48 C 382.08 233.59 397.42 218.3 410.88 202.93 M 376.77 272.65 C 397.13 250.58 408.29 230.79 425.32 216.8 M 376.77 272.65 C 386.22 261.23 397.71 251.78 425.32 216.8 M 394.49 282.76 C 404.15 268.31 419.1 254.03 443.7 226.15 M 394.49 282.76 C 406.46 268.02 417.67 256.34 443.7 226.15 M 369.21 265.45 C 369.21 265.45 369.21 265.45 369.21 265.45 M 369.21 265.45 C 369.21 265.45 369.21 265.45 369.21 265.45 M 403.46 268.73 C 390.46 261.57 376.16 243.97 367.23 237.24 M 403.46 268.73 C 394.75 262.47 387.84 254.84 367.23 237.24 M 427.9 263.47 C 406.65 245.09 383.11 222.97 372.81 215.58 M 427.9 263.47 C 416.6 254.13 403.53 242.29 372.81 215.58 M 446.31 252.97 C 427.26 233.95 411.93 220.99 390.46 204.42 M 446.31 252.97 C 431.21 237.35 413.89 222.74 390.46 204.42" fill="none" stroke="#660033" stroke-width="2.5" stroke-linejoin="round" stroke-linecap="round" stroke-miterlimit="10" pointer-events="all"/><path d="M 412.1 205.3 C 419.41 206.79 427.64 211.07 432.89 217.02 C 438.13 222.96 443.02 233.07 443.58 240.97 C 444.14 248.86 441.02 258.17 436.23 264.39 C 431.44 270.6 422.12 275.42 414.84 278.25 C 407.57 281.08 400.18 283.52 392.56 281.38 C 384.94 279.23 374.28 271.68 369.12 265.37 C 363.96 259.07 361.49 251.15 361.58 243.56 C 361.67 235.98 365.15 226.06 369.66 219.87 C 374.17 213.67 381.84 209.22 388.66 206.4 C 395.49 203.57 405.12 202.97 410.61 202.92 C 416.1 202.87 418.7 204.6 421.6 206.12 C 424.5 207.63 428.28 211.04 428.02 211.98 M 377.42 212.61 C 383.44 207.61 395.33 204.03 403.65 203.73 C 411.98 203.43 421.1 206.63 427.36 210.81 C 433.63 214.99 439.42 221.28 441.24 228.83 C 443.06 236.38 441.15 248.2 438.28 256.12 C 435.42 264.05 429.43 272.33 424.05 276.38 C 418.68 280.42 413.73 280.09 406.04 280.4 C 398.35 280.71 384.67 281.86 377.91 278.24 C 371.16 274.62 368.21 266.12 365.5 258.66 C 362.79 251.21 359.35 241.41 361.66 233.53 C 363.97 225.64 376.2 215.12 379.38 211.33 C 382.56 207.54 381.18 211 380.75 210.8 C 380.32 210.6 376.58 209.89 376.81 210.11" fill="none" stroke="#003366" stroke-width="5" stroke-linejoin="round" stroke-linecap="round" stroke-miterlimit="10" pointer-events="all"/><ellipse cx="242" cy="242" rx="60" ry="60" fill="none" stroke="none" pointer-events="all"/><path d="M 194.93 204.68 C 194.93 204.68 194.93 204.68 194.93 204.68 M 194.93 204.68 C 194.93 204.68 194.93 204.68 194.93 204.68 M 192.31 238.18 C 202.9 220.65 218.65 206.41 234.3 189.88 M 192.31 238.18 C 203.32 225.24 216.76 207.15 234.3 189.88 M 191.66 269.41 C 216.62 233.49 249.56 208.54 261.86 188.66 M 191.66 269.41 C 211.21 245.61 230.41 224.45 261.86 188.66 M 202.82 287.06 C 226.24 260.02 241.13 243.08 278.92 199.52 M 202.82 287.06 C 227.14 256.52 251.7 226.65 278.92 199.52 M 220.54 297.17 C 244.87 269.15 262.59 250.17 294.67 211.88 M 220.54 297.17 C 246.62 268.61 270.72 242.07 294.67 211.88 M 237.6 308.02 C 263.4 281.38 286.82 249.47 304.52 231.04 M 237.6 308.02 C 255.97 285.71 275.98 264.81 304.52 231.04 M 267.13 304.54 C 283.83 292.57 296.89 274.88 305.18 260.77 M 267.13 304.54 C 281.87 286.76 298.13 272 305.18 260.77 M 200.91 285.29 C 200.91 285.29 200.91 285.29 200.91 285.29 M 200.91 285.29 C 200.91 285.29 200.91 285.29 200.91 285.29 M 237.42 290.54 C 227.55 279.78 214.33 268.59 195.16 253.8 M 237.42 290.54 C 221.82 277.82 202.92 262.18 195.16 253.8 M 267.9 290.53 C 236.74 268.37 214.09 243.82 190.92 223.61 M 267.9 290.53 C 246.47 270.55 221.49 250.78 190.92 223.61 M 287.82 281.34 C 255.61 250.27 226.09 224.05 197.25 202.61 M 287.82 281.34 C 263.32 257.28 234.01 234.65 197.25 202.61 M 298.67 264.28 C 278.4 242.35 251.02 224.32 214.15 190.8 M 298.67 264.28 C 278.06 244.5 252.35 226.23 214.15 190.8 M 311.04 248.53 C 282.45 225.98 249.5 200.06 232.55 180.3 M 311.04 248.53 C 286.33 223.53 258.88 204.08 232.55 180.3" fill="none" stroke="#660033" stroke-width="2.5" stroke-linejoin="round" stroke-linecap="round" stroke-miterlimit="10" pointer-events="all"/><path d="M 228.83 185.09 C 237.7 182.61 250.47 183.23 259.53 186 C 268.59 188.77 276.43 194.84 283.2 201.68 C 289.96 208.53 297 217.64 300.13 227.08 C 303.25 236.51 304.19 249.11 301.95 258.32 C 299.71 267.52 293.53 275.61 286.69 282.32 C 279.85 289.03 270.54 295.51 260.9 298.58 C 251.27 301.65 238.84 302.92 228.87 300.73 C 218.9 298.54 208.16 291.49 201.08 285.45 C 194.01 279.4 189.18 273.44 186.43 264.43 C 183.69 255.43 183.16 241.42 184.61 231.42 C 186.06 221.42 189.35 211.72 195.13 204.46 C 200.9 197.2 208.2 190.96 219.26 187.87 C 230.33 184.78 249.9 182.9 261.54 185.9 C 273.18 188.9 289.44 204.61 289.1 205.87 M 194.67 205.65 C 199.36 197.57 211.15 188.72 219.58 185.06 C 228.01 181.4 235.85 182.24 245.24 183.7 C 254.63 185.16 267.64 188.76 275.9 193.82 C 284.16 198.88 290.48 205.15 294.79 214.05 C 299.1 222.96 302.5 237.07 301.75 247.25 C 301 257.43 295.28 267.45 290.31 275.15 C 285.33 282.85 280.43 288.49 271.89 293.42 C 263.36 298.35 249.07 304.76 239.09 304.73 C 229.12 304.69 220.5 297.96 212.06 293.22 C 203.62 288.47 193.24 283.94 188.46 276.23 C 183.68 268.53 183.83 257.63 183.4 247 C 182.97 236.38 184.46 218.95 185.86 212.48 C 187.25 206.02 189.86 208.88 191.79 208.22 C 193.72 207.57 196.15 207.99 197.41 208.55" fill="none" stroke="#003366" stroke-width="5" stroke-linejoin="round" stroke-linecap="round" stroke-miterlimit="10" pointer-events="all"/><path d="M 194.62 204.52 L 65.33 75.23 M 75.23 65.33 L 204.52 194.62 M 75.23 65.33" fill="none" stroke="none" pointer-events="all"/><path d="M 194.62 204.52 M 194.62 204.52 C 143.8 153.83 93.13 99.29 65.33 75.23 M 194.62 204.52 C 158.68 168.72 121.67 129.49 65.33 75.23 M 75.23 65.33 M 75.23 65.33 C 128.02 111.2 180.04 164.61 204.52 194.62 M 75.23 65.33 C 119.2 107.52 164.09 150.32 204.52 194.62 M 75.23 65.33" fill="none" stroke="#003366" stroke-width="5" stroke-linejoin="round" stroke-linecap="round" stroke-miterlimit="10" pointer-events="all"/><path d="M 235 182 L 235 122 M 249 122 L 249 182 M 249 122" fill="none" stroke="none" pointer-events="all"/><path d="M 235 182 M 235 182 C 236.42 158.16 234.36 131.33 235 122 M 235 182 C 232.99 162.94 234.96 141.04 235 122 M 249 122 M 249 122 C 249.39 137.36 248.84 151.26 249 182 M 249 122 C 251.4 141.24 250.92 158.99 249 182 M 249 122" fill="none" stroke="#003366" stroke-width="5" stroke-linejoin="round" stroke-linecap="round" stroke-miterlimit="10" pointer-events="all"/><path d="M 279.48 194.62 L 408.77 65.33 M 418.67 75.23 L 289.38 204.52 M 418.67 75.23" fill="none" stroke="none" pointer-events="all"/><path d="M 279.48 194.62 M 279.48 194.62 C 330.33 141.94 384.88 96.2 408.77 65.33 M 279.48 194.62 C 308.05 162.67 337.76 135.56 408.77 65.33 M 418.67 75.23 M 418.67 75.23 C 387.53 106.1 351.18 137.4 289.38 204.52 M 418.67 75.23 C 379.33 111.99 343.86 147.52 289.38 204.52 M 418.67 75.23" fill="none" stroke="#003366" stroke-width="5" stroke-linejoin="round" stroke-linecap="round" stroke-miterlimit="10" pointer-events="all"/><path d="M 235 362 L 235 302 M 249 302 L 249 362 M 249 302" fill="none" stroke="none" pointer-events="all"/><path d="M 235 362 M 235 362 C 239.44 342.01 232.67 315.98 235 302 M 235 362 C 233.45 343.16 233.72 325.49 235 302 M 249 302 M 249 302 C 248.53 322.27 251.43 335.05 249 362 M 249 302 C 246.33 317.35 249.44 331.25 249 362 M 249 302" fill="none" stroke="#003366" stroke-width="5" stroke-linejoin="round" stroke-linecap="round" stroke-miterlimit="10" pointer-events="all"/><path d="M 182 249 L 122 249 M 122 235 L 182 235 M 122 235" fill="none" stroke="none" pointer-events="all"/><path d="M 182 249 M 182 249 C 159.89 250.83 135.11 248.85 122 249 M 182 249 C 161.31 248 138.82 250.35 122 249 M 122 235 M 122 235 C 140.39 233.32 160.78 233.77 182 235 M 122 235 C 136.74 233.12 151.75 235 182 235 M 122 235" fill="none" stroke="#003366" stroke-width="5" stroke-linejoin="round" stroke-linecap="round" stroke-miterlimit="10" pointer-events="all"/><path d="M 204.52 289.38 L 75.23 418.67 M 65.33 408.77 L 194.62 279.48 M 65.33 408.77" fill="none" stroke="none" pointer-events="all"/><path d="M 204.52 289.38 M 204.52 289.38 C 152.37 338.31 105.91 387.71 75.23 418.67 M 204.52 289.38 C 174.96 320.82 142.88 352.27 75.23 418.67 M 65.33 408.77 M 65.33 408.77 C 108.62 365 154.1 315.64 194.62 279.48 M 65.33 408.77 C 92.55 381.66 122.44 355.9 194.62 279.48 M 65.33 408.77" fill="none" stroke="#003366" stroke-width="5" stroke-linejoin="round" stroke-linecap="round" stroke-miterlimit="10" pointer-events="all"/><path d="M 408.77 418.67 L 279.48 289.38 M 289.38 279.48 L 418.67 408.77 M 289.38 279.48" fill="none" stroke="none" pointer-events="all"/><path d="M 408.77 418.67 M 408.77 418.67 C 354.77 366.69 305.96 314.54 279.48 289.38 M 408.77 418.67 C 368.96 376.31 326.72 335.57 279.48 289.38 M 289.38 279.48 M 289.38 279.48 C 338.03 332.34 393.78 387.15 418.67 408.77 M 289.38 279.48 C 340.31 327.56 386.66 378.42 418.67 408.77 M 289.38 279.48" fill="none" stroke="#003366" stroke-width="5" stroke-linejoin="round" stroke-linecap="round" stroke-miterlimit="10" pointer-events="all"/><path d="M 362 249 L 302 249 M 302 235 L 362 235 M 302 235" fill="none" stroke="none" pointer-events="all"/><path d="M 362 249 M 362 249 C 341.03 252.14 317.19 251.36 302 249 M 362 249 C 339.52 249.05 317.53 246.72 302 249 M 302 235 M 302 235 C 312.48 237.97 328.35 230.42 362 235 M 302 235 C 323.66 236.2 343.6 232.76 362 235 M 302 235" fill="none" stroke="#003366" stroke-width="5" stroke-linejoin="round" stroke-linecap="round" stroke-miterlimit="10" pointer-events="all"/></g></svg>